<svg width="57" height="76" viewBox="0 0 57 76" fill="none" xmlns="http://www.w3.org/2000/svg">
    <path d="M40.943 76.001H18.059C9.205 76.001 2.001 70.356 2.001 61.501V61.001H57.001V61.501C57.001 70.356 49.797 76.001 40.943 76.001ZM3.009 62.001C3.274 70.074 9.923 75.001 18.059 75.001H40.943C49.079 75.001 55.728 70.074 55.993 62.001H3.009ZM38.686 55.517L43.012 60.001H44.402L39.687 55.114V41.907L31.687 34.128V30.574C31.359 30.438 31.026 30.318 30.687 30.212V34.551L38.687 42.33V55.517H38.686ZM30.686 47.329L18.001 60.001H19.416L31.686 47.743V41.907L23.686 34.128V30.195C23.347 30.299 23.014 30.417 22.686 30.55V34.55L30.686 42.329V47.329ZM41.362 32.481C38.828 32.481 36.48 31.711 34.516 30.407C32.404 28.722 29.73 27.712 26.818 27.712C23.683 27.712 20.823 28.882 18.644 30.806C16.816 31.865 14.699 32.48 12.434 32.48C5.567 32.48 0 26.913 0 20.046C0 13.179 5.567 7.612 12.434 7.612C13.421 7.612 14.38 7.731 15.301 7.948C17.101 3.298 21.612 0 26.897 0C32.182 0 36.694 3.299 38.493 7.948C39.414 7.731 40.373 7.612 41.36 7.612C48.227 7.612 53.793 13.179 53.793 20.046C53.795 26.914 48.228 32.481 41.362 32.481Z" fill="black"/>
</svg>
