<svg width="67" height="63" viewBox="0 0 67 63" fill="none" xmlns="http://www.w3.org/2000/svg">
    <path d="M5.231 13.54L65.025 0L65.822 3.807L5.618 15.389L5.231 13.54ZM6.796 21.017L67 9.435L66.203 5.628L6.409 19.168L6.796 21.017ZM36.786 58.999V62H22.786V59.053L21.786 59.726V63H37.786V59.672L36.786 58.999ZM0 29V29.5C0 43.002 8.187 54.297 20.528 58.162L21.599 57.441C9.403 53.99 1.207 43.114 1.004 30.001H60.194C59.962 42.682 50.952 53.787 38.03 57.426L39.103 58.149C52.191 54.108 61.198 42.573 61.198 29.501V29.001H0V29Z" fill="black"/>
</svg>
