<svg width="69" height="71" viewBox="0 0 69 71" fill="none" xmlns="http://www.w3.org/2000/svg">
    <path d="M36.2988 71H32.7008C23.0778 71 13.9888 66.816 7.76381 59.521C1.59381 52.29 -1.08919 42.771 0.404809 33.405L1.09581 29.074C3.78281 12.227 18.1868 0 35.3448 0C51.5248 0 65.1068 11.53 67.6408 27.416L68.5958 33.404C70.0898 42.77 67.4068 52.289 61.2368 59.52C55.0108 66.816 45.9218 71 36.2988 71ZM35.3438 1C18.6798 1 4.69181 12.873 2.08181 29.231L1.39081 33.562C-0.0571897 42.639 2.54281 51.864 8.52381 58.872C14.5588 65.944 23.3708 70 32.6998 70H36.2978C45.6268 70 54.4388 65.944 60.4738 58.872C66.4548 51.864 69.0538 42.639 67.6068 33.562L66.6518 27.574C64.1968 12.176 51.0298 1 35.3438 1ZM28.5668 22.077C27.4618 22.077 26.5668 22.972 26.5668 24.077C26.5668 25.182 27.4618 26.077 28.5668 26.077C29.6718 26.077 30.5668 25.182 30.5668 24.077L28.5668 22.077ZM38.4328 24.077C38.4328 25.182 39.3278 26.077 40.4328 26.077C41.5378 26.077 42.4328 25.182 42.4328 24.077C42.4328 22.972 41.5378 22.077 40.4328 22.077L38.4328 24.077ZM23.4998 47.316H20.4998V57.316H23.4998V47.316ZM31.8328 47.316H28.8328V57.316H31.8328V47.316ZM40.1668 47.316H37.1668V57.316H40.1668V47.316ZM48.4998 47.316H45.4998V57.316H48.4998V47.316ZM43.4998 13.069H41.4998C41.4998 16.378 38.8088 19.069 35.4998 19.069V21.069C39.9108 21.069 43.4998 17.48 43.4998 13.069ZM33.4998 19.069C30.1908 19.069 27.4998 16.378 27.4998 13.069H25.4998C25.4998 17.48 29.0888 21.069 33.4998 21.069V19.069ZM32.4998 29.569V26.569C27.8128 26.569 23.9998 30.382 23.9998 35.069H26.9998C26.9998 32.036 29.4668 29.569 32.4998 29.569ZM36.4998 26.569V29.569C39.5328 29.569 41.9998 32.036 41.9998 35.069H44.9998C44.9998 30.382 41.1868 26.569 36.4998 26.569ZM33.4998 40.108C22.9378 39.7 14.4998 32.933 14.4998 24.647C14.4998 16.361 22.9378 9.594 33.4998 9.186V8.186C22.3858 8.6 13.4998 15.813 13.4998 24.646C13.4998 33.479 22.3858 40.692 33.4998 41.106V40.108ZM35.4998 8.187V9.187C46.0618 9.595 54.4998 16.362 54.4998 24.648C54.4998 32.934 46.0618 39.701 35.4998 40.109V41.109C46.6138 40.695 55.4998 33.482 55.4998 24.649C55.4998 15.816 46.6138 8.601 35.4998 8.187Z" fill="black"/>
</svg>
