<svg width="67" height="70" viewBox="0 0 67 70" fill="none" xmlns="http://www.w3.org/2000/svg">
    <path d="M49 22.518V34.518H18V22.518H49ZM48 36.52V69H19V36.52H18V69.5V70H49V69.5V36.52H48.994H48ZM8.715 37.32C5.613 37.152 3.107 35.772 1.038 33.326L0.999999 1H25.462L31.38 6.918L32.098 6.2L25.898 0H0V33.439C0.012 33.574 0.056999 33.71 0.145999 33.817C2.378 36.536 5.261 38.134 8.661 38.318C11.202 38.46 13.754 37.813 16.004 36.514V35.348C13.805 36.755 11.256 37.464 8.715 37.32ZM40.878 0L40.871 0.00599957L20.404 20.472H21.922L41.394 1H66L65.962 33.327C63.894 35.773 61.387 37.153 58.285 37.321C55.744 37.465 53.195 36.755 50.996 35.35V36.516C53.246 37.815 55.798 38.462 58.339 38.32C61.739 38.136 64.622 36.537 66.854 33.819C66.942 33.712 66.988 33.576 67 33.441V0H40.878Z" fill="black"/>
</svg>
