<svg width="40" height="78" viewBox="0 0 40 78" fill="none" xmlns="http://www.w3.org/2000/svg">
<path d="M15.1 22.5C15.3761 22.5 15.6 22.2761 15.6 22C15.6 21.7239 15.3761 21.5 15.1 21.5C14.8239 21.5 14.6 21.7239 14.6 22C14.6 22.2761 14.8239 22.5 15.1 22.5Z" fill="black"/>
<path d="M24.1 22.5C24.3761 22.5 24.6 22.2761 24.6 22C24.6 21.7239 24.3761 21.5 24.1 21.5C23.8239 21.5 23.6 21.7239 23.6 22C23.6 22.2761 23.8239 22.5 24.1 22.5Z" fill="black"/>
<path d="M21.1 28.3C21.1 27.9 20.8 27.5 20.3 27.5C20 27.5 19.7 27.7 19.6 28C19.5 27.7 19.2 27.5 18.9 27.5C18.5 27.5 18.1 27.8 18.1 28.3C18.1 29.1 18.8 29.8 19.6 29.8C20.4 29.8 21.1 29.2 21.1 28.3Z" fill="black"/>
<path d="M19.6 15C18.4 15 17.3 14.5 16.5 13.6C14.9 14.8 12.5 14.7 11 13.2L11.7 12.5C12.9 13.7 15 13.7 16.2 12.5L16.6 12.1L16.9 12.6C17.6 13.5 18.5 14 19.6 14C20.7 14 21.6 13.5 22.2 12.6L22.5 12.1L22.9 12.5C24.1 13.7 26.2 13.7 27.4 12.5L28.1 13.2C26.7 14.6 24.2 14.8 22.6 13.6C21.9 14.5 20.8 15 19.6 15Z" fill="black"/>
<path d="M16 65.4H14V70.9H16V65.4Z" fill="black"/>
<path d="M20.6 65.4H18.6V70.9H20.6V65.4Z" fill="black"/>
<path d="M25.2 65.4H23.2V70.9H25.2V65.4Z" fill="black"/>
<path d="M15.8 58.7L12.9 56.5L13.5 55.7L15.8 57.4L18.3 55.4L20.9 57.4L23.4 55.4L26.3 57.7L25.7 58.5L23.4 56.7L20.9 58.7L18.3 56.7L15.8 58.7Z" fill="black"/>
<path d="M15.8 62.4L12.9 60.1L13.5 59.3L15.8 61.1L18.3 59.1L20.9 61.1L23.4 59.1L26.3 61.3L25.7 62.1L23.4 60.4L20.9 62.4L18.3 60.4L15.8 62.4Z" fill="black"/>
<path d="M16 43H14V48.5H16V43Z" fill="black"/>
<path d="M20.6 43H18.6V48.5H20.6V43Z" fill="black"/>
<path d="M25.2 43H23.2V48.5H25.2V43Z" fill="black"/>
<path d="M25.6 51.5H13.6V52.5H25.6V51.5Z" fill="black"/>
<path d="M39.2 28H29.1V14.5H30.1V27H37.9L33.2 8.1C33.1 7.9 33 7.6 32.9 7.4C30.5 3.5 25.3 1 19.6 1C13.9 1 8.8 3.5 6.3 7.3C6.1 7.5 6 7.8 6 8.1L1.3 27H9.1V14.5H10.1V28H0L5.1 7.7C5.2 7.4 5.3 7.2 5.4 6.9C8 2.7 13.5 0 19.6 0C25.8 0 31.5 2.8 34 7.2L34.1 7.7L39.2 28Z" fill="black"/>
<path d="M31.1 30H29.5C26.8 31.9 23.3 33 19.4 33C15.5 33 12 31.9 9.3 30H7.7C9.9 31.8 12.7 33.1 15.8 33.7L10.6 36.1V78H28.6V36.1L23.2 33.6C26.3 33 29 31.8 31.1 30ZM27.6 77H11.6V39.5H27.6V77Z" fill="black"/>
</svg>
