<svg width="55" height="71" viewBox="0 0 55 71" fill="none" xmlns="http://www.w3.org/2000/svg">
<path d="M29.154 29.116H5.891V7.116H38.49L29.154 29.116ZM6.891 28.116H28.517L36.92 8.116H6.891V28.116ZM36.572 63.882H25.99V45.031H36.572V63.882ZM26.899 62.974H35.664V45.939H26.899V62.974ZM23.991 63.882H5.933V45.031H23.991V63.882V63.882ZM6.842 62.974H23.084V45.939H6.842V62.974ZM49.168 63.882H38.587V45.031H49.168V63.882ZM39.496 62.974H48.261V45.939H39.496V62.974ZM34.851 34.145C34.851 33.865 35.071 33.645 35.341 33.645C35.621 33.645 35.851 33.865 35.851 34.145C35.851 34.415 35.621 34.645 35.341 34.645C35.071 34.645 34.851 34.415 34.851 34.145ZM32.851 34.145C32.851 33.865 33.071 33.645 33.341 33.645C33.621 33.645 33.851 33.865 33.851 34.145C33.851 34.415 33.621 34.645 33.341 34.645C33.071 34.645 32.851 34.415 32.851 34.145ZM30.851 34.145C30.851 33.865 31.071 33.645 31.341 33.645C31.621 33.645 31.851 33.865 31.851 34.145C31.851 34.415 31.621 34.645 31.341 34.645C31.071 34.645 30.851 34.415 30.851 34.145ZM28.851 34.145C28.851 33.865 29.071 33.645 29.341 33.645C29.621 33.645 29.851 33.865 29.851 34.145C29.851 34.415 29.621 34.645 29.341 34.645C29.071 34.645 28.851 34.415 28.851 34.145ZM26.851 34.145C26.851 33.865 27.071 33.645 27.341 33.645C27.621 33.645 27.851 33.865 27.851 34.145C27.851 34.415 27.621 34.645 27.341 34.645C27.071 34.645 26.851 34.415 26.851 34.145ZM24.851 34.145C24.851 33.865 25.071 33.645 25.341 33.645C25.621 33.645 25.851 33.865 25.851 34.145C25.851 34.415 25.621 34.645 25.341 34.645C25.071 34.645 24.851 34.415 24.851 34.145ZM22.851 34.145C22.851 33.865 23.071 33.645 23.341 33.645C23.621 33.645 23.851 33.865 23.851 34.145C23.851 34.415 23.621 34.645 23.341 34.645C23.071 34.645 22.851 34.415 22.851 34.145ZM20.851 34.145C20.851 33.865 21.071 33.645 21.341 33.645C21.621 33.645 21.851 33.865 21.851 34.145C21.851 34.415 21.621 34.645 21.341 34.645C21.071 34.645 20.851 34.415 20.851 34.145ZM18.851 34.145C18.851 33.865 19.071 33.645 19.341 33.645C19.621 33.645 19.851 33.865 19.851 34.145C19.851 34.415 19.621 34.645 19.341 34.645C19.071 34.645 18.851 34.415 18.851 34.145ZM16.851 34.145C16.851 33.865 17.071 33.645 17.341 33.645C17.621 33.645 17.851 33.865 17.851 34.145C17.851 34.415 17.621 34.645 17.341 34.645C17.071 34.645 16.851 34.415 16.851 34.145ZM14.851 34.145C14.851 33.865 15.071 33.645 15.341 33.645C15.621 33.645 15.851 33.865 15.851 34.145C15.851 34.415 15.621 34.645 15.341 34.645C15.071 34.645 14.851 34.415 14.851 34.145ZM12.851 34.145C12.851 33.865 13.071 33.645 13.341 33.645C13.621 33.645 13.851 33.865 13.851 34.145C13.851 34.415 13.621 34.645 13.341 34.645C13.071 34.645 12.851 34.415 12.851 34.145ZM10.851 34.145C10.851 33.865 11.071 33.645 11.341 33.645C11.621 33.645 11.851 33.865 11.851 34.145C11.851 34.415 11.621 34.645 11.341 34.645C11.071 34.645 10.851 34.415 10.851 34.145ZM8.851 34.145C8.851 33.865 9.071 33.645 9.351 33.645C9.621 33.645 9.851 33.865 9.851 34.145C9.851 34.415 9.621 34.645 9.351 34.645C9.071 34.645 8.851 34.415 8.851 34.145ZM38.851 38.145C38.851 37.865 39.071 37.645 39.341 37.645C39.621 37.645 39.851 37.865 39.851 38.145C39.851 38.415 39.621 38.645 39.341 38.645C39.071 38.645 38.851 38.415 38.851 38.145ZM36.851 38.145C36.851 37.865 37.071 37.645 37.341 37.645C37.621 37.645 37.851 37.865 37.851 38.145C37.851 38.415 37.621 38.645 37.341 38.645C37.071 38.645 36.851 38.415 36.851 38.145ZM34.851 38.145C34.851 37.865 35.071 37.645 35.341 37.645C35.621 37.645 35.851 37.865 35.851 38.145C35.851 38.415 35.621 38.645 35.341 38.645C35.071 38.645 34.851 38.415 34.851 38.145ZM32.851 38.145C32.851 37.865 33.071 37.645 33.341 37.645C33.621 37.645 33.851 37.865 33.851 38.145C33.851 38.415 33.621 38.645 33.341 38.645C33.071 38.645 32.851 38.415 32.851 38.145ZM30.851 38.145C30.851 37.865 31.071 37.645 31.341 37.645C31.621 37.645 31.851 37.865 31.851 38.145C31.851 38.415 31.621 38.645 31.341 38.645C31.071 38.645 30.851 38.415 30.851 38.145ZM28.851 38.145C28.851 37.865 29.071 37.645 29.341 37.645C29.621 37.645 29.851 37.865 29.851 38.145C29.851 38.415 29.621 38.645 29.341 38.645C29.071 38.645 28.851 38.415 28.851 38.145ZM26.851 38.145C26.851 37.865 27.071 37.645 27.341 37.645C27.621 37.645 27.851 37.865 27.851 38.145C27.851 38.415 27.621 38.645 27.341 38.645C27.071 38.645 26.851 38.415 26.851 38.145ZM24.851 38.145C24.851 37.865 25.071 37.645 25.341 37.645C25.621 37.645 25.851 37.865 25.851 38.145C25.851 38.415 25.621 38.645 25.341 38.645C25.071 38.645 24.851 38.415 24.851 38.145ZM22.851 38.145C22.851 37.865 23.071 37.645 23.341 37.645C23.621 37.645 23.851 37.865 23.851 38.145C23.851 38.415 23.621 38.645 23.341 38.645C23.071 38.645 22.851 38.415 22.851 38.145ZM20.851 38.145C20.851 37.865 21.071 37.645 21.341 37.645C21.621 37.645 21.851 37.865 21.851 38.145C21.851 38.415 21.621 38.645 21.341 38.645C21.071 38.645 20.851 38.415 20.851 38.145ZM18.851 38.145C18.851 37.865 19.071 37.645 19.341 37.645C19.621 37.645 19.851 37.865 19.851 38.145C19.851 38.415 19.621 38.645 19.341 38.645C19.071 38.645 18.851 38.415 18.851 38.145ZM16.851 38.145C16.851 37.865 17.071 37.645 17.341 37.645C17.621 37.645 17.851 37.865 17.851 38.145C17.851 38.415 17.621 38.645 17.341 38.645C17.071 38.645 16.851 38.415 16.851 38.145ZM14.851 38.145C14.851 37.865 15.071 37.645 15.341 37.645C15.621 37.645 15.851 37.865 15.851 38.145C15.851 38.415 15.621 38.645 15.341 38.645C15.071 38.645 14.851 38.415 14.851 38.145ZM12.851 38.145C12.851 37.865 13.071 37.645 13.341 37.645C13.621 37.645 13.851 37.865 13.851 38.145C13.851 38.415 13.621 38.645 13.341 38.645C13.071 38.645 12.851 38.415 12.851 38.145ZM10.851 38.145C10.851 37.865 11.071 37.645 11.341 37.645C11.621 37.645 11.851 37.865 11.851 38.145C11.851 38.415 11.621 38.645 11.341 38.645C11.071 38.645 10.851 38.415 10.851 38.145ZM8.851 38.145C8.851 37.865 9.071 37.645 9.351 37.645C9.621 37.645 9.851 37.865 9.851 38.145C9.851 38.415 9.621 38.645 9.351 38.645C9.071 38.645 8.851 38.415 8.851 38.145ZM35.851 36.145C35.851 35.865 36.071 35.645 36.351 35.645C36.621 35.645 36.841 35.865 36.841 36.145C36.841 36.415 36.621 36.645 36.351 36.645C36.071 36.645 35.851 36.415 35.851 36.145ZM33.851 36.145C33.851 35.865 34.071 35.645 34.341 35.645C34.621 35.645 34.841 35.865 34.841 36.145C34.841 36.415 34.621 36.645 34.341 36.645C34.071 36.645 33.851 36.415 33.851 36.145ZM31.851 36.145C31.851 35.865 32.071 35.645 32.341 35.645C32.621 35.645 32.851 35.865 32.851 36.145C32.851 36.415 32.621 36.645 32.341 36.645C32.071 36.645 31.851 36.415 31.851 36.145ZM29.841 36.145C29.841 35.865 30.071 35.645 30.351 35.645C30.621 35.645 30.851 35.865 30.851 36.145C30.851 36.415 30.621 36.645 30.351 36.645C30.071 36.645 29.841 36.415 29.841 36.145ZM27.841 36.145C27.841 35.865 28.071 35.645 28.351 35.645C28.621 35.645 28.851 35.865 28.851 36.145C28.851 36.415 28.621 36.645 28.351 36.645C28.071 36.645 27.841 36.415 27.841 36.145ZM25.851 36.145C25.851 35.865 26.071 35.645 26.351 35.645C26.621 35.645 26.851 35.865 26.851 36.145C26.851 36.415 26.621 36.645 26.351 36.645C26.071 36.645 25.851 36.415 25.851 36.145ZM23.851 36.145C23.851 35.865 24.071 35.645 24.351 35.645C24.621 35.645 24.851 35.865 24.851 36.145C24.851 36.415 24.621 36.645 24.351 36.645C24.071 36.645 23.851 36.415 23.851 36.145ZM21.851 36.145C21.851 35.865 22.071 35.645 22.351 35.645C22.621 35.645 22.841 35.865 22.841 36.145C22.841 36.415 22.621 36.645 22.351 36.645C22.071 36.645 21.851 36.415 21.851 36.145ZM19.851 36.145C19.851 35.865 20.071 35.645 20.351 35.645C20.621 35.645 20.841 35.865 20.841 36.145C20.841 36.415 20.621 36.645 20.351 36.645C20.071 36.645 19.851 36.415 19.851 36.145ZM17.851 36.145C17.851 35.865 18.071 35.645 18.341 35.645C18.621 35.645 18.851 35.865 18.851 36.145C18.851 36.415 18.621 36.645 18.341 36.645C18.071 36.645 17.851 36.415 17.851 36.145ZM15.851 36.145C15.851 35.865 16.071 35.645 16.341 35.645C16.621 35.645 16.851 35.865 16.851 36.145C16.851 36.415 16.621 36.645 16.341 36.645C16.071 36.645 15.851 36.415 15.851 36.145ZM13.841 36.145C13.841 35.865 14.071 35.645 14.351 35.645C14.621 35.645 14.851 35.865 14.851 36.145C14.851 36.415 14.621 36.645 14.351 36.645C14.071 36.645 13.841 36.415 13.841 36.145ZM11.841 36.145C11.841 35.865 12.071 35.645 12.351 35.645C12.621 35.645 12.851 35.865 12.851 36.145C12.851 36.415 12.621 36.645 12.351 36.645C12.071 36.645 11.841 36.415 11.841 36.145ZM9.851 36.145C9.851 35.865 10.071 35.645 10.351 35.645C10.621 35.645 10.851 35.865 10.851 36.145C10.851 36.415 10.621 36.645 10.351 36.645C10.071 36.645 9.851 36.415 9.851 36.145ZM45.841 40.145C45.841 39.865 46.071 39.645 46.341 39.645C46.621 39.645 46.851 39.865 46.851 40.145C46.851 40.415 46.621 40.645 46.341 40.645C46.071 40.645 45.841 40.415 45.841 40.145ZM43.841 40.145C43.841 39.865 44.071 39.645 44.351 39.645C44.621 39.645 44.851 39.865 44.851 40.145C44.851 40.415 44.621 40.645 44.351 40.645C44.071 40.645 43.841 40.415 43.841 40.145ZM41.851 40.145C41.851 39.865 42.071 39.645 42.351 39.645C42.621 39.645 42.851 39.865 42.851 40.145C42.851 40.415 42.621 40.645 42.351 40.645C42.071 40.645 41.851 40.415 41.851 40.145ZM39.851 40.145C39.851 39.865 40.071 39.645 40.351 39.645C40.621 39.645 40.851 39.865 40.851 40.145C40.851 40.415 40.621 40.645 40.351 40.645C40.071 40.645 39.851 40.415 39.851 40.145ZM37.851 40.145C37.851 39.865 38.071 39.645 38.351 39.645C38.621 39.645 38.851 39.865 38.851 40.145C38.851 40.415 38.621 40.645 38.351 40.645C38.071 40.645 37.851 40.415 37.851 40.145ZM35.851 40.145C35.851 39.865 36.071 39.645 36.351 39.645C36.621 39.645 36.841 39.865 36.841 40.145C36.841 40.415 36.621 40.645 36.351 40.645C36.071 40.645 35.851 40.415 35.851 40.145ZM33.851 40.145C33.851 39.865 34.071 39.645 34.341 39.645C34.621 39.645 34.841 39.865 34.841 40.145C34.841 40.415 34.621 40.645 34.341 40.645C34.071 40.645 33.851 40.415 33.851 40.145ZM31.851 40.145C31.851 39.865 32.071 39.645 32.341 39.645C32.621 39.645 32.851 39.865 32.851 40.145C32.851 40.415 32.621 40.645 32.341 40.645C32.071 40.645 31.851 40.415 31.851 40.145ZM29.841 40.145C29.841 39.865 30.071 39.645 30.351 39.645C30.621 39.645 30.851 39.865 30.851 40.145C30.851 40.415 30.621 40.645 30.351 40.645C30.071 40.645 29.841 40.415 29.841 40.145ZM27.841 40.145C27.841 39.865 28.071 39.645 28.351 39.645C28.621 39.645 28.851 39.865 28.851 40.145C28.851 40.415 28.621 40.645 28.351 40.645C28.071 40.645 27.841 40.415 27.841 40.145ZM25.851 40.145C25.851 39.865 26.071 39.645 26.351 39.645C26.621 39.645 26.851 39.865 26.851 40.145C26.851 40.415 26.621 40.645 26.351 40.645C26.071 40.645 25.851 40.415 25.851 40.145ZM23.851 40.145C23.851 39.865 24.071 39.645 24.351 39.645C24.621 39.645 24.851 39.865 24.851 40.145C24.851 40.415 24.621 40.645 24.351 40.645C24.071 40.645 23.851 40.415 23.851 40.145ZM21.851 40.145C21.851 39.865 22.071 39.645 22.351 39.645C22.621 39.645 22.841 39.865 22.841 40.145C22.841 40.415 22.621 40.645 22.351 40.645C22.071 40.645 21.851 40.415 21.851 40.145ZM19.851 40.145C19.851 39.865 20.071 39.645 20.351 39.645C20.621 39.645 20.841 39.865 20.841 40.145C20.841 40.415 20.621 40.645 20.351 40.645C20.071 40.645 19.851 40.415 19.851 40.145ZM17.851 40.145C17.851 39.865 18.071 39.645 18.341 39.645C18.621 39.645 18.851 39.865 18.851 40.145C18.851 40.415 18.621 40.645 18.341 40.645C18.071 40.645 17.851 40.415 17.851 40.145ZM15.851 40.145C15.851 39.865 16.071 39.645 16.341 39.645C16.621 39.645 16.851 39.865 16.851 40.145C16.851 40.415 16.621 40.645 16.341 40.645C16.071 40.645 15.851 40.415 15.851 40.145ZM13.841 40.145C13.841 39.865 14.071 39.645 14.351 39.645C14.621 39.645 14.851 39.865 14.851 40.145C14.851 40.415 14.621 40.645 14.351 40.645C14.071 40.645 13.841 40.415 13.841 40.145ZM11.841 40.145C11.841 39.865 12.071 39.645 12.351 39.645C12.621 39.645 12.851 39.865 12.851 40.145C12.851 40.415 12.621 40.645 12.351 40.645C12.071 40.645 11.841 40.415 11.841 40.145ZM9.851 40.145C9.851 39.865 10.071 39.645 10.351 39.645C10.621 39.645 10.851 39.865 10.851 40.145C10.851 40.415 10.621 40.645 10.351 40.645C10.071 40.645 9.851 40.415 9.851 40.145ZM47.552 24.619L48.474 25.008C48.225 25.598 48.598 26.562 49.381 27.351C50.003 27.978 50.713 28.339 51.274 28.339C51.42 28.339 51.555 28.315 51.677 28.264L52.059 29.189C51.467 29.433 51.068 30.354 51.064 31.481C51.061 32.604 51.471 33.562 52.061 33.809L51.674 34.731C51.549 34.679 51.41 34.654 51.26 34.654C50.698 34.654 49.99 35.009 49.37 35.63C48.595 36.407 48.225 37.36 48.473 37.946L47.551 38.335C47.301 37.742 46.3 37.337 45.215 37.337C45.214 37.337 45.212 37.337 45.211 37.337C44.089 37.342 43.172 37.742 42.931 38.331L42.006 37.951C42.248 37.361 41.878 36.435 41.084 35.648C40.454 35.023 39.715 34.657 39.141 34.657C38.993 34.657 38.856 34.681 38.734 34.732L38.347 33.81C38.937 33.562 39.347 32.605 39.344 31.482C39.341 30.355 38.941 29.434 38.349 29.19L38.731 28.265C38.848 28.313 38.981 28.337 39.124 28.337C39.696 28.337 40.44 27.967 41.073 27.335C41.862 26.548 42.244 25.59 42.005 25.005L42.93 24.625C43.172 25.214 44.088 25.613 45.21 25.618C45.228 25.618 45.247 25.618 45.265 25.618C46.363 25.616 47.307 25.201 47.552 24.619ZM42.985 36.886C43.569 36.54 44.343 36.34 45.208 36.336C46.094 36.361 46.885 36.531 47.484 36.881C47.65 36.221 48.055 35.533 48.664 34.923C49.27 34.315 49.955 33.91 50.612 33.743C50.262 33.147 50.063 32.358 50.065 31.477C50.067 30.608 50.268 29.831 50.615 29.243C49.96 29.073 49.278 28.664 48.672 28.055C48.057 27.435 47.649 26.738 47.483 26.072C46.884 26.423 46.058 26.614 45.208 26.617C44.344 26.613 43.57 26.413 42.986 26.067C42.814 26.73 42.4 27.424 41.782 28.041C41.161 28.661 40.464 29.074 39.797 29.246C40.144 29.833 40.343 30.61 40.346 31.478C40.348 32.358 40.15 33.146 39.8 33.742C40.468 33.909 41.168 34.32 41.79 34.937C42.403 35.544 42.813 36.229 42.985 36.886ZM54 3V70H3V71H55V3H54V3ZM53 0H0V68H1V0.999999H53V0ZM22.433 10.134H8.815V21.28C10.297 21.921 11.475 22.294 13.018 22.294C15.102 22.294 17.127 21.64 18.712 20.526L21.53 21.383L20.789 18.559C22.075 16.907 22.822 14.88 22.822 12.624C22.822 11.74 22.67 10.922 22.433 10.134ZM48.863 38.866L48.26 39.12V42.124H6.774V32.044H38.3C38.328 31.88 38.346 31.694 38.345 31.483C38.345 31.352 38.328 31.248 38.316 31.136H5.866V43.033H49.168V38.738L48.863 38.866ZM37.427 28.594L37.624 28.116H32.905L41.308 8.116H48.183V23.587L48.863 23.874L49.183 24.004V7.116H40.672L31.336 29.116H37.212L37.427 28.594Z" fill="black"/>
</svg>
