<svg width="78" height="73" viewBox="0 0 78 73" fill="none" xmlns="http://www.w3.org/2000/svg">
<path d="M14.788 57.309V72.097L0 57.309H14.788ZM63.212 11.788L78 26.576H63.212V11.788ZM9.155 7.847L20.308 16.662L20.789 15.865L8.533 6.179L3.018 34.986L10.6 55.563H11.585L3.975 34.907L9.155 7.847ZM32.5 1.813L47.288 26.768V42.037V57.095L47.351 72.015H17.775L17.712 57.095V42.037V26.768L32.5 1.813ZM32.5 0L31.705 1.342L16.917 26.297L16.788 26.515V26.768V42.037V57.095V72.076V73H17.712H47.288H48.212V72.076V57.095V42.037V26.768V26.515L48.083 26.297L33.295 1.342L32.5 0ZM61.644 12.992L50.292 24.357V25.773L61.644 14.407V12.992ZM62.14 28.672V56.993L49.94 69.808V71.259L63.14 57.392V28.672H62.14V28.672Z" fill="black"/>
</svg>
