<svg width="67" height="57" viewBox="0 0 67 57" fill="none" xmlns="http://www.w3.org/2000/svg">
<path d="M36.8 52.5V55.5H22.8V52.6L21.8 53.2V56.5H37.8V53.2L36.8 52.5Z" fill="black"/>
<path d="M0 22.5V23C0 36.5 8.2 47.8 20.5 51.7L21.6 51C9.4 47.5 1.2 36.6 1 23.5H60.2C60 36.2 51 47.3 38 50.9L39.1 51.6C52.2 47.6 61.2 36 61.2 23V22.5H0Z" fill="black"/>
<path d="M14.2 5.3C14.7 5.7 15 6 15 6.5C15 7 14.7 7.3 14.2 7.7C13.7 8.1 13 8.6 13 9.7C13 10.7 13.7 11.3 14.2 11.7C14.7 12.1 15 12.4 15 12.9C15 13.4 14.7 13.7 14.2 14.1C13.7 14.5 13 15 13 16.1C13 17.2 13.7 17.7 14.2 18.1C14.7 18.5 15 18.8 15 19.3C15 19.8 14.7 20.1 14.2 20.5C13.7 20.9 13 21.4 13 22.5C13 22.6 13 22.6 13 22.7H14C14 22.6 14 22.6 14 22.5C14 22 14.3 21.7 14.8 21.3C15.3 20.9 16 20.4 16 19.3C16 18.3 15.3 17.7 14.8 17.3C14.3 16.9 14 16.6 14 16.1C14 15.6 14.3 15.3 14.8 14.9C15.3 14.5 16 14 16 12.9C16 11.8 15.3 11.3 14.8 10.9C14.3 10.5 14 10.2 14 9.7C14 9.2 14.3 8.9 14.8 8.5C15.3 8.1 16 7.6 16 6.5C16 5.5 15.3 4.9 14.8 4.5C14.3 4.1 14 3.8 14 3.3C14 2.8 14.3 2.5 14.8 2.1C15.3 1.7 16 1.2 16 0.1H15C15 0.6 14.7 0.899999 14.2 1.3C13.7 1.7 13 2.2 13 3.3C13 4.4 13.7 4.9 14.2 5.3Z" fill="black"/>
<path d="M17.8 8.5C18.3 8.1 19 7.6 19 6.5C19 5.5 18.3 4.9 17.8 4.5C17.3 4.1 17 3.8 17 3.3C17 2.8 17.3 2.5 17.8 2.1C18.3 1.7 19 1.2 19 0.1H18C18 0.6 17.7 0.899999 17.2 1.3C16.7 1.7 16 2.2 16 3.3C16 4.3 16.7 4.9 17.2 5.3C17.7 5.7 18 6 18 6.5C18 7 17.7 7.3 17.2 7.7C16.7 8.1 16 8.6 16 9.7C16 10.7 16.7 11.3 17.2 11.7C17.7 12.1 18 12.4 18 12.9C18 13.4 17.7 13.7 17.2 14.1C16.7 14.5 16 15 16 16.1C16 17.2 16.7 17.7 17.2 18.1C17.7 18.5 18 18.8 18 19.3C18 19.8 17.7 20.1 17.2 20.5C16.7 20.9 16 21.4 16 22.5C16 22.6 16 22.6 16 22.7H17C17 22.6 17 22.6 17 22.5C17 22 17.3 21.7 17.8 21.3C18.3 20.9 19 20.4 19 19.3C19 18.3 18.3 17.7 17.8 17.3C17.3 16.9 17 16.6 17 16.1C17 15.6 17.3 15.3 17.8 14.9C18.3 14.5 19 14 19 12.9C19 11.8 18.3 11.3 17.8 10.9C17.3 10.5 17 10.2 17 9.7C17 9.1 17.3 8.9 17.8 8.5Z" fill="black"/>
<path d="M11.2 20.4C10.7 20.8 10 21.3 10 22.4C10 22.5 10 22.5 10 22.6H11C11 22.5 11 22.5 11 22.4C11 21.9 11.3 21.6 11.8 21.2C12.3 20.8 13 20.3 13 19.2C13 18.2 12.3 17.6 11.8 17.2C11.3 16.8 11 16.5 11 16C11 15.5 11.3 15.2 11.8 14.8C12.3 14.4 13 13.9 13 12.8C13 11.7 12.3 11.2 11.8 10.8C11.3 10.4 11 10.1 11 9.6C11 9.1 11.3 8.8 11.8 8.4C12.3 8 13 7.5 13 6.4C13 5.4 12.3 4.8 11.8 4.4C11.3 4 11 3.7 11 3.2C11 2.7 11.3 2.4 11.8 2C12.3 1.6 13 1.1 13 0H12C12 0.5 11.7 0.800001 11.2 1.2C10.7 1.6 10 2.1 10 3.2C10 4.2 10.7 4.8 11.2 5.2C11.7 5.6 12 5.9 12 6.4C12 6.9 11.7 7.2 11.2 7.6C10.7 8 10 8.5 10 9.6C10 10.6 10.7 11.2 11.2 11.6C11.7 12 12 12.3 12 12.8C12 13.3 11.7 13.6 11.2 14C10.7 14.4 10 14.9 10 16C10 17.1 10.7 17.6 11.2 18C11.7 18.4 12 18.7 12 19.2C12 19.7 11.7 19.9 11.2 20.4Z" fill="black"/>
<path d="M9 3.3C9 2.8 9.1 2.4 9.3 2.1L5.7 2L5.5 3.8L9.1 4.1C9 3.9 9 3.6 9 3.3Z" fill="black"/>
<path d="M12 3.3C12 3.4 12 3.4 12 3.3Z" fill="black"/>
<path d="M15 3.3C15 3.4 15 3.4 15 3.3Z" fill="black"/>
<path d="M10.6 6.9C10.7 6.8 11 6.6 11 6.5C11 6.4 10.7 6.2 10.6 6.1C10.4 5.9 10.1 5.7 9.8 5.4L5.7 4.8L5.4 6.7L10 7.5C10.2 7.2 10.4 7 10.6 6.9Z" fill="black"/>
<path d="M19 2.5C18.8 2.7 18.6 2.8 18.5 2.9C18.4 3 18.1 3.2 18.1 3.3C18.1 3.4 18.4 3.6 18.5 3.7C18.8 4 19.3 4.3 19.6 4.8L66.7 8.3L66.9 4.4L19 2.5Z" fill="black"/>
<path d="M18.8 8.9L65.8 16.9L66.4 13.1L19.9 6.8C19.9 7.8 19.3 8.5 18.8 8.9Z" fill="black"/>
</svg>
