<svg width="67" height="71" viewBox="0 0 67 71" fill="none" xmlns="http://www.w3.org/2000/svg">
    <path d="M54.3412 71L66.9982 58H37.4492L50.1072 71H54.3412Z" fill="black"/>
    <path d="M13.829 12.614L2.389 1H29.556L18.208 12.614H19.606L31.931 0H0L12.424 12.614H13.829Z" fill="black"/>
    <path d="M19.0758 14.6133L29.9648 25.6683V62.4323C29.9648 66.1523 27.6858 69.9993 23.8708 69.9993H9.02984C5.39884 69.9993 1.96585 66.3213 1.96585 62.4323V25.6793L13.7358 14.6133H12.2758L0.964844 25.2463V62.4323C0.964844 66.9163 4.80885 70.9993 9.02884 70.9993H23.8708C28.3108 70.9993 30.9648 66.6433 30.9648 62.4323V25.2583L20.4808 14.6133H19.0758Z" fill="black"/>
</svg>
