<svg width="75" height="68" viewBox="0 0 75 68" fill="none" xmlns="http://www.w3.org/2000/svg">
    <path d="M67.6206 19.738L23.5476 12.439L67.6206 19.738ZM67.7016 19.245L23.6286 11.946L23.4656 12.932L67.5386 20.231L67.7016 19.245ZM35.0646 8.649L34.0806 8.475L32.2456 18.867L33.2296 19.041L35.0646 8.649ZM44.4166 10.301L43.4326 10.127L41.5966 20.519L42.5806 20.693L44.4166 10.301ZM52.7296 11.769L51.7456 11.595L49.9106 21.987L50.8946 22.161L52.7296 11.769ZM61.0436 13.238L60.0596 13.064L58.2236 23.456L59.2076 23.63L61.0436 13.238ZM65.4216 8.186L65.4256 8.166L65.2426 8.144C65.1686 8.129 65.0986 8.106 65.0236 8.093C64.4656 7.992 63.9116 7.946 63.3606 7.923L25.7426 3.498L25.2056 3.401C24.6246 3.296 24.0466 3.246 23.4766 3.246C19.9256 3.246 16.6896 5.214 15.0126 8.268L7.54257 0L6.45457 8.297L15.4006 9.764C15.6326 9.156 15.9616 8.536 16.3926 7.927C16.4066 7.908 16.4196 7.888 16.4336 7.869C16.5446 7.715 16.6636 7.562 16.7906 7.41C16.8856 7.294 16.9866 7.183 17.0876 7.072C17.1386 7.017 17.1806 6.96 17.2346 6.905L17.2366 6.911C18.8246 5.258 21.0466 4.245 23.4776 4.245C23.9946 4.245 24.5166 4.292 25.0296 4.385L25.8356 4.515L63.2456 8.916C63.2706 8.919 63.2956 8.921 63.3206 8.922C63.9116 8.947 64.3966 8.996 64.8456 9.077L64.8946 9.089C64.9456 9.102 64.9956 9.114 65.0476 9.125C65.0666 9.129 65.0866 9.132 65.1066 9.135C65.1406 9.146 65.1766 9.156 65.2126 9.164C71.1106 10.433 74.8926 16.074 73.8216 22.005C72.8656 27.303 68.2666 31.148 62.8876 31.148C62.3076 31.148 61.7206 31.102 61.1436 31.011C61.1136 31.006 61.0846 31.003 61.0546 31.001C61.0466 30.999 61.0386 30.998 61.0306 30.997C60.9866 30.99 60.9426 30.984 60.8936 30.98C60.4666 30.903 60.0196 30.788 59.4856 30.618C59.4636 30.611 59.4426 30.605 59.4206 30.6L22.7686 21.623L21.9466 21.458C19.6666 21.047 17.6826 19.772 16.3616 17.868C15.6586 16.856 15.1956 15.729 14.9706 14.554L14.9626 14.559C14.9626 14.559 14.9176 14.334 14.8756 13.985C14.8696 13.939 14.8656 13.892 14.8616 13.846C14.8006 13.277 14.7586 12.458 14.9026 11.709L6.09357 10.264L4.19257 18.369L13.8316 13.408C14.0496 17.801 17.2546 21.628 21.7686 22.442L22.3056 22.539L59.1816 31.571C59.6796 31.729 60.1866 31.869 60.7146 31.964C60.7646 31.973 60.8136 31.975 60.8636 31.983L60.9826 32.012L60.9856 31.998C61.6236 32.099 62.2586 32.147 62.8856 32.147C68.6396 32.147 73.7466 28.044 74.8046 22.181C75.9696 15.727 71.7866 9.556 65.4216 8.186ZM27.8006 27.718L21.4476 53.852L21.4236 53.918V64.205L32.2806 66.361V56.304L39.1796 30.511L27.8006 27.718ZM20.2406 26.042C19.9926 25.098 19.8496 24.119 19.8356 23.123C19.4816 23.009 19.1346 22.879 18.7946 22.733C18.7776 23.789 18.8986 24.829 19.1246 25.838L20.2406 26.042ZM19.4246 54.901V53.919V53.885L11.2386 52.419C4.53757 51.134 -0.0784258 44.168 1.20657 37.466L1.21457 37.429C2.35657 31.475 7.63857 27.107 13.5026 27.107C14.2386 27.107 14.9856 27.176 15.7326 27.319L25.4086 29.09L25.6456 28.117L15.9136 26.336C15.1246 26.185 14.3116 26.107 13.5036 26.107C7.15558 26.107 1.45057 30.893 0.233575 37.24C-0.437425 40.735 0.353574 44.471 2.39657 47.528C4.44857 50.598 7.60257 52.739 11.0506 53.4L19.4246 54.901ZM19.4246 62.818L16.3406 62.227C13.2586 61.636 10.5856 59.817 8.81357 57.106C7.99257 55.85 7.42557 54.48 7.10357 53.062C6.69057 52.845 6.28757 52.61 5.90057 52.354C6.18457 54.229 6.85957 56.044 7.93057 57.683C9.86157 60.636 12.7776 62.618 16.1426 63.263L19.4256 63.893V62.818H19.4246ZM48.7666 64.767C46.1176 66.63 42.9606 67.331 39.8786 66.74L34.2806 65.667V66.363V66.741L39.6796 67.776C40.4606 67.926 41.2446 68 42.0256 68C44.6116 68 47.1566 67.189 49.3736 65.63C51.2246 64.328 52.6796 62.617 53.6576 60.654C53.1976 60.793 52.7326 60.914 52.2576 61.005C51.3816 62.468 50.2076 63.754 48.7666 64.767ZM65.6826 32.956C64.7826 34.701 63.4646 36.22 61.8066 37.386C61.6806 37.475 61.5476 37.548 61.4196 37.631C61.6266 37.917 61.8176 38.214 62.0046 38.514C62.1416 38.425 62.2806 38.342 62.4146 38.248C64.4686 36.803 66.0346 34.855 67.0006 32.616C66.5676 32.75 66.1296 32.864 65.6826 32.956ZM52.1246 32.962L41.1326 30.951L41.1116 31.028L40.8726 31.92L51.9346 33.944C58.6356 35.229 62.9686 42.006 61.6836 48.707L61.6756 48.744C60.5336 54.698 55.2516 59.066 49.3876 59.066C48.6516 59.066 47.9046 58.997 47.1566 58.854L34.2856 56.548L34.2806 56.567V57.563L46.9816 59.838C47.7666 59.989 48.5806 60.066 49.3886 60.066C55.7366 60.066 61.4416 55.28 62.6586 48.933C64.0616 41.622 59.2336 34.325 52.1246 32.962Z" fill="black"/>
</svg>
