<svg width="61" height="64" viewBox="0 0 61 64" fill="none" xmlns="http://www.w3.org/2000/svg">
<path d="M33.134 32L39.486 36.399L37.778 38.865L32 34.863V40.5H29V34.863L23.222 38.865L21.514 36.399L27.865 32L21.513 27.601L23.221 25.135L28.999 29.137V23.5H31.999V29.137L37.777 25.135L39.485 27.601L33.134 32ZM30.497 31.998L30.498 32.001L30.501 32L30.497 31.998ZM30.5 32.001V32H30.498L30.5 32.001ZM18.347 8.784C20.511 4.093 25.287 0.993 30.492 0.993C35.697 0.993 40.474 4.095 42.638 8.787L43.218 7.712C40.763 3.043 35.836 0 30.492 0C25.148 0 20.223 3.042 17.768 7.71L18.347 8.784ZM42.65 55.199C40.489 59.899 35.709 63.007 30.498 63.007C25.288 63.007 20.508 59.9 18.348 55.203L17.768 56.279C20.221 60.953 25.15 64 30.499 64C35.848 64 40.779 60.952 43.231 56.275L42.65 55.199ZM45.008 8.573L44.414 9.674C45.152 9.549 45.893 9.465 46.634 9.465C54.008 9.465 60.007 15.464 60.007 22.838C60.007 25.789 59.014 28.644 57.212 30.98H58.454C60.105 28.591 61.001 25.756 61.001 22.838C61.001 14.916 54.557 8.472 46.635 8.472C46.092 8.472 45.549 8.511 45.008 8.573ZM57.168 32.967C58.997 35.313 60.006 38.189 60.006 41.163C60.006 48.537 54.007 54.536 46.633 54.536C45.897 54.536 45.16 54.452 44.428 54.329L45.022 55.43C45.559 55.491 46.097 55.529 46.633 55.529C54.555 55.529 60.999 49.085 60.999 41.163C60.999 38.223 60.09 35.368 58.415 32.967H57.168V32.967ZM3.788 30.98C1.986 28.643 0.993 25.789 0.993 22.838C0.993 15.464 6.992 9.465 14.366 9.465C15.108 9.465 15.851 9.55 16.59 9.675L15.996 8.574C15.453 8.512 14.909 8.472 14.367 8.472C6.445 8.472 0.000999451 14.916 0.000999451 22.838C0.000999451 25.756 0.897 28.591 2.548 30.98H3.788V30.98ZM15.981 55.429L16.575 54.328C15.841 54.451 15.102 54.535 14.366 54.535C6.992 54.535 0.993 48.536 0.993 41.162C0.993 38.188 2.002 35.313 3.831 32.966H2.584C0.909 35.367 0 38.222 0 41.162C0 49.084 6.444 55.528 14.366 55.528C14.903 55.528 15.442 55.49 15.981 55.429ZM19.998 23.824C19.4 23.824 18.915 24.309 18.915 24.907C18.915 25.505 19.4 25.99 19.998 25.99C20.596 25.99 21.081 25.505 21.081 24.907C21.081 24.309 20.596 23.824 19.998 23.824ZM41.001 23.824C40.403 23.824 39.918 24.309 39.918 24.907C39.918 25.505 40.403 25.99 41.001 25.99C41.599 25.99 42.084 25.505 42.084 24.907C42.084 24.309 41.599 23.824 41.001 23.824ZM30.456 18.826C29.858 18.826 29.373 19.311 29.373 19.909C29.373 20.507 29.858 20.992 30.456 20.992C31.054 20.992 31.539 20.507 31.539 19.909C31.539 19.311 31.054 18.826 30.456 18.826ZM19.998 40.176C20.596 40.176 21.081 39.691 21.081 39.093C21.081 38.495 20.596 38.01 19.998 38.01C19.4 38.01 18.915 38.495 18.915 39.093C18.915 39.691 19.399 40.176 19.998 40.176ZM41.001 40.176C41.599 40.176 42.084 39.691 42.084 39.093C42.084 38.495 41.599 38.01 41.001 38.01C40.403 38.01 39.918 38.495 39.918 39.093C39.918 39.691 40.403 40.176 41.001 40.176ZM30.456 45.174C31.054 45.174 31.539 44.689 31.539 44.091C31.539 43.493 31.054 43.008 30.456 43.008C29.858 43.008 29.373 43.493 29.373 44.091C29.373 44.689 29.858 45.174 30.456 45.174Z" fill="black"/>
</svg>
