<svg width="70" height="72" viewBox="0 0 70 72" fill="none" xmlns="http://www.w3.org/2000/svg">
<path d="M36.7988 71.9707H33.2008C23.5778 71.9707 14.4888 67.7867 8.26381 60.4917C2.09381 53.2607 -0.589191 43.7417 0.904809 34.3757L1.59581 30.0447C4.28281 13.1977 18.6868 0.970703 35.8448 0.970703C52.0248 0.970703 65.6068 12.5007 68.1408 28.3867L69.0958 34.3747C70.5898 43.7407 67.9068 53.2597 61.7368 60.4907C55.5108 67.7867 46.4218 71.9707 36.7988 71.9707ZM35.8438 1.9707C19.1798 1.9707 5.19181 13.8437 2.58181 30.2017L1.89081 34.5327C0.44281 43.6097 3.04281 52.8347 9.02381 59.8427C15.0588 66.9147 23.8708 70.9707 33.1998 70.9707H36.7978C46.1268 70.9707 54.9388 66.9147 60.9738 59.8427C66.9548 52.8347 69.5538 43.6097 68.1068 34.5327L67.1518 28.5447C64.6968 13.1467 51.5298 1.9707 35.8438 1.9707ZM29.0668 23.0477C27.9618 23.0477 27.0668 23.9427 27.0668 25.0477C27.0668 26.1527 27.9618 27.0477 29.0668 27.0477C30.1718 27.0477 31.0668 26.1527 31.0668 25.0477L29.0668 23.0477ZM38.9328 25.0477C38.9328 26.1527 39.8278 27.0477 40.9328 27.0477C42.0378 27.0477 42.9328 26.1527 42.9328 25.0477C42.9328 23.9427 42.0378 23.0477 40.9328 23.0477L38.9328 25.0477ZM23.9998 48.2867H20.9998V58.2867H23.9998V48.2867ZM32.3328 48.2867H29.3328V58.2867H32.3328V48.2867ZM40.6668 48.2867H37.6668V58.2867H40.6668V48.2867ZM48.9998 48.2867H45.9998V58.2867H48.9998V48.2867ZM43.9998 14.0397H41.9998C41.9998 17.3487 39.3088 20.0397 35.9998 20.0397V22.0397C40.4108 22.0397 43.9998 18.4507 43.9998 14.0397ZM33.9998 20.0397C30.6908 20.0397 27.9998 17.3487 27.9998 14.0397H25.9998C25.9998 18.4507 29.5888 22.0397 33.9998 22.0397V20.0397ZM32.9998 30.5397V27.5397C28.3128 27.5397 24.4998 31.3527 24.4998 36.0397H27.4998C27.4998 33.0067 29.9668 30.5397 32.9998 30.5397ZM36.9998 27.5397V30.5397C40.0328 30.5397 42.4998 33.0067 42.4998 36.0397H45.4998C45.4998 31.3527 41.6868 27.5397 36.9998 27.5397ZM33.9998 41.0787C23.4378 40.6707 14.9998 33.9037 14.9998 25.6177C14.9998 17.3317 23.4378 10.5647 33.9998 10.1567V9.1567C22.8858 9.5707 13.9998 16.7837 13.9998 25.6167C13.9998 34.4497 22.8858 41.6627 33.9998 42.0767V41.0787ZM35.9998 9.1577V10.1577C46.5618 10.5657 54.9998 17.3327 54.9998 25.6187C54.9998 33.9047 46.5618 40.6717 35.9998 41.0797V42.0797C47.1138 41.6657 55.9998 34.4527 55.9998 25.6197C55.9998 16.7867 47.1138 9.5717 35.9998 9.1577Z" fill="black"/>
</svg>
